<?xml version="1.0" encoding="UTF-8"?>
<svg version="1.1" xmlns="http://www.w3.org/2000/svg" width="1096" height="688">
<path d="M0 0 C2.07868943 0.04519242 4.15747315 0.08624864 6.23632812 0.12304688 C11.30572955 0.22174465 16.37057132 0.37676447 21.4375 0.5625 C20.50434879 1.66187491 19.56962916 2.75991864 18.63427734 3.85742188 C18.11392914 4.46904175 17.59358093 5.08066162 17.0574646 5.71081543 C14.51430031 8.61775431 11.80409385 11.3438999 9.0625 14.0625 C8.49813232 14.62493408 7.93376465 15.18736816 7.35229492 15.7668457 C3.66214074 19.41901689 -0.10859066 22.93874371 -4.07421875 26.29296875 C-5.69060735 27.63789285 -5.69060735 27.63789285 -7.5625 29.5625 C6.2975 29.8925 20.1575 30.2225 34.4375 30.5625 C33.43357457 45.62138148 31.43215564 60.60258267 29.4375 75.5625 C5.0175 75.5625 -19.4025 75.5625 -44.5625 75.5625 C-44.5625 79.1925 -44.5625 82.8225 -44.5625 86.5625 C-44.6714241 88.56484935 -44.80693507 90.56650569 -45 92.5625 C-45.12181641 93.8928125 -45.12181641 93.8928125 -45.24609375 95.25 C-45.5625 97.5625 -45.5625 97.5625 -46.5625 100.5625 C-26.7625 100.5625 -6.9625 100.5625 13.4375 100.5625 C12.77621313 109.82051622 12.02246423 118.98141742 10.9375 128.1875 C10.74220703 129.90259766 10.74220703 129.90259766 10.54296875 131.65234375 C9.48179923 140.77411405 9.48179923 140.77411405 8.4375 144.5625 C-11.90782904 145.58234318 -32.19847732 145.66868552 -52.5625 145.5625 C-53.5525 155.1325 -54.5425 164.7025 -55.5625 174.5625 C-31.4725 174.5625 -7.3825 174.5625 17.4375 174.5625 C12.2375 216.1625 12.2375 216.1625 10.4375 221.5625 C3.1775 221.8925 -4.0825 222.2225 -11.5625 222.5625 C-13.5425 228.8325 -15.5225 235.1025 -17.5625 241.5625 C-2.18685766 242.7242152 13.19180661 243.84273351 28.5730896 244.92709351 C30.41137645 245.05693667 32.24961488 245.18746757 34.08779907 245.3187561 C52.74964102 246.65002144 71.39740364 247.62453711 90.10229492 248.06518555 C92.63535347 248.12524549 95.16825029 248.19030026 97.70117188 248.25585938 C149.77522789 249.55943512 201.84082373 246.25680345 253.796875 243.1015625 C254.86834967 243.0365045 255.93982433 242.9714465 257.04376793 242.90441704 C267.83455807 242.2484255 278.62499387 241.58705931 289.41464901 240.91264439 C310.17564156 239.61585621 330.93539872 238.38205885 351.71484375 237.41796875 C352.57665316 237.37773024 353.43846256 237.33749172 354.32638741 237.29603386 C373.02279053 236.43062241 391.72378804 235.86876075 410.4375 235.5625 C411.12970642 235.55047546 411.82191284 235.53845093 412.53509521 235.52606201 C473.85947098 234.48741626 535.45653809 238.27172074 596.4375 244.5625 C597.13631287 244.63382141 597.83512573 244.70514282 598.55511475 244.77862549 C602.7268728 245.20525817 606.89539472 245.65518086 611.0625 246.125 C612.01503662 246.22748047 612.96757324 246.32996094 613.94897461 246.43554688 C619.74250341 247.13087698 624.97885707 248.50117685 630.4375 250.5625 C630.08418514 254.27230607 629.55970783 256.38300725 627.4375 259.5 C625.02522086 263.19380243 624.28745726 265.13623915 624.4375 269.5625 C626.44314036 273.54057476 628.92801668 277.10841057 632.140625 280.203125 C633.4375 281.5625 633.4375 281.5625 633.4375 283.5625 C625.06266423 283.07383617 616.69716416 282.52722297 608.3359375 281.84375 C607.55849182 281.7804248 606.78104614 281.71709961 605.9800415 281.65185547 C602.80433915 281.39215619 599.62877907 281.13093159 596.45361328 280.86474609 C569.57127979 278.61944446 542.77402918 278.3181192 515.8125 278.3125 C514.83995899 278.31205814 513.86741798 278.31161629 512.86540604 278.31116104 C478.29549554 278.30294834 443.93332145 279.13400822 409.4375 281.5625 C408.21436096 281.64735657 406.99122192 281.73221313 405.73101807 281.81964111 C351.71239452 285.58476356 297.8472018 291.13002334 243.99121094 296.70336914 C240.61914835 297.0523208 237.24707904 297.4012074 233.875 297.75 C233.04658096 297.83569622 232.21816193 297.92139244 231.36463928 298.00968552 C193.11211395 301.96461416 154.85275499 305.62057182 116.4375 307.5625 C114.84518555 307.64927002 114.84518555 307.64927002 113.22070312 307.73779297 C-39.10465144 315.87565671 -39.10465144 315.87565671 -77.5625 288.5625 C-77.13450914 280.28800999 -74.51805804 273.22950112 -71.5625 265.5625 C-101.33448279 263.42870067 -131.18710412 265.36854435 -160.5625 270.5625 C-161.22660889 270.67916016 -161.89071777 270.79582031 -162.57495117 270.91601562 C-187.19854775 275.26287821 -212.0129867 280.51122034 -235.2578125 289.93676758 C-237.92074658 290.65976546 -239.07471546 290.76472463 -241.5625 289.5625 C-243.07958984 287.47485352 -243.07958984 287.47485352 -244.5234375 284.69140625 C-245.07080566 283.65411377 -245.61817383 282.61682129 -246.18212891 281.5480957 C-246.76140137 280.41847412 -247.34067383 279.28885254 -247.9375 278.125 C-248.86364335 276.36119285 -249.78980781 274.59739639 -250.71725464 272.83427429 C-251.68468995 270.99121121 -252.64636919 269.14522618 -253.60742188 267.29882812 C-256.7411668 261.29228777 -259.96954608 255.33672355 -263.1875 249.375 C-263.76677246 248.29613525 -264.34604492 247.21727051 -264.94287109 246.10571289 C-265.49023926 245.08727295 -266.03760742 244.06883301 -266.6015625 243.01953125 C-267.10977539 242.07029785 -267.61798828 241.12106445 -268.14160156 240.14306641 C-269.37347392 237.90579995 -270.67825425 235.74388772 -272.0234375 233.57421875 C-273.5625 230.5625 -273.5625 230.5625 -273.49121094 228.50366211 C-272.5625 226.5625 -272.5625 226.5625 -270.26513672 225.40576172 C-268.76877686 224.95354248 -268.76877686 224.95354248 -267.2421875 224.4921875 C-266.1490625 224.15316406 -265.0559375 223.81414062 -263.9296875 223.46484375 C-262.77726562 223.12582031 -261.62484375 222.78679687 -260.4375 222.4375 C-259.30828125 222.09074219 -258.1790625 221.74398437 -257.015625 221.38671875 C-251.54928501 219.71609259 -246.06502772 218.1095875 -240.5625 216.5625 C-243.6466704 214.5063864 -246.24013014 213.59264704 -249.75 212.4375 C-258.07239518 209.54161955 -265.76667543 205.64265234 -273.5625 201.5625 C-272.19366909 196.8076137 -270.1148812 192.9281259 -267.4375 188.8125 C-266.54955483 187.42005214 -265.66293906 186.02675604 -264.77734375 184.6328125 C-264.27831543 183.84938477 -263.77928711 183.06595703 -263.26513672 182.25878906 C-260.16726243 177.35300706 -257.13223056 172.40828439 -254.09356689 167.46569824 C-253.00809488 165.7006627 -251.92091044 163.93669096 -250.83349609 162.17285156 C-250.16527832 161.08713867 -249.49706055 160.00142578 -248.80859375 158.8828125 C-248.20716553 157.90586426 -247.6057373 156.92891602 -246.98608398 155.92236328 C-245.57541732 153.65423 -245.57541732 153.65423 -244.5625 151.5625 C-239.54870391 152.23704686 -235.26596647 154.34435049 -230.6875 156.375 C-214.9818386 163.17306326 -196.56074101 169.3631408 -179.6328125 163.5390625 C-176.55494084 162.08723625 -175.10717889 160.58164511 -173.5625 157.5625 C-172.96840193 153.99791159 -173.22961597 152.21241644 -174.875 149 C-183.53352237 141.14692157 -196.35220441 139.34809718 -207.38085938 136.68945312 C-223.00035406 132.75076241 -235.89939165 126.11449951 -245.3203125 112.6484375 C-254.81405817 96.70610987 -253.94426658 77.96638413 -249.5625 60.5625 C-244.26776583 44.01888005 -233.05581829 31.07846183 -218.1171875 22.37890625 C-188.86088153 7.42925539 -154.67198109 7.10332117 -123.7421875 17.0234375 C-116.69178869 19.48054661 -110.11112666 23.0105531 -103.5625 26.5625 C-104.14690942 30.31430017 -105.20165984 33.08899246 -107.08203125 36.37890625 C-107.60450439 37.29921631 -108.12697754 38.21952637 -108.6652832 39.16772461 C-109.22948975 40.14362549 -109.79369629 41.11952637 -110.375 42.125 C-110.95016357 43.13119385 -111.52532715 44.1373877 -112.11791992 45.17407227 C-117.79054692 55.05489791 -123.63917701 64.83028811 -129.5625 74.5625 C-135.72655701 73.32550464 -141.57280675 71.64395153 -147.5 69.5625 C-159.81620939 65.37044594 -172.22887704 61.5038782 -184.5625 67.5625 C-186.76137923 69.15919834 -186.76137923 69.15919834 -187.5625 71.5625 C-187.72275399 75.10828685 -187.72275399 75.10828685 -186.5625 78.5625 C-182.93893257 82.04618707 -179.25521324 83.67877969 -174.5625 85.375 C-173.87897461 85.62580322 -173.19544922 85.87660645 -172.49121094 86.13500977 C-168.44375192 87.60079516 -164.36862815 88.9560983 -160.265625 90.2578125 C-143.95406417 95.44625838 -127.55256478 101.71853761 -118.84765625 117.625 C-110.76570932 136.09802155 -111.6235249 157.2500975 -118.8125 175.875 C-122.53468397 184.21898943 -128.09753194 192.09753194 -134.5625 198.5625 C-128.9525 198.2325 -123.3425 197.9025 -117.5625 197.5625 C-117.31888985 195.43851524 -117.31888985 195.43851524 -117.07035828 193.2716217 C-115.05095084 175.92726015 -112.67175518 158.6407514 -110.21973634 141.35372043 C-109.66532843 137.44100063 -109.11393324 133.52785616 -108.56217957 129.61476135 C-107.52311575 122.24877983 -106.48145436 114.88316825 -105.43879098 107.51769549 C-104.24924738 99.11369862 -103.06270403 90.70927896 -101.87637675 82.30482757 C-99.44168821 65.05692166 -97.00295325 47.80959125 -94.5625 30.5625 C-81.6925 30.2325 -68.8225 29.9025 -55.5625 29.5625 C-56.2225 30.8825 -56.8825 32.2025 -57.5625 33.5625 C-53.44038823 30.41929418 -49.86362619 26.94454416 -46.25 23.25 C-42.15417494 19.1035808 -38.07400941 15.03120658 -33.52392578 11.37548828 C-31.47740811 9.62047756 -31.47740811 9.62047756 -30.02075195 7.29614258 C-22.60451905 -2.69611644 -11.18383678 -0.42221529 0 0 Z M-61.5625 35.5625 C-63.0475 37.5425 -63.0475 37.5425 -64.5625 39.5625 C-49.0525 39.5625 -33.5425 39.5625 -17.5625 39.5625 C-17.2325 38.9025 -16.9025 38.2425 -16.5625 37.5625 C-30.7525 37.5625 -44.9425 37.5625 -59.5625 37.5625 C-59.5625 36.9025 -59.5625 36.2425 -59.5625 35.5625 C-60.2225 35.5625 -60.8825 35.5625 -61.5625 35.5625 Z " fill="#017E00" transform="translate(368.5625,237.4375)"/>
<path d="M0 0 C3.924833 -0.00219088 7.84938618 -0.02042216 11.77416992 -0.03930664 C57.00680644 -0.14267917 57.00680644 -0.14267917 69.4987793 8.18530273 C67.28830901 17.67415078 64.47482804 26.91602838 61.4987793 36.18530273 C103.16464198 41.55221895 143.98881569 43.41986088 185.9987793 43.43530273 C187.64724161 43.4366283 187.64724161 43.4366283 189.3290062 43.43798065 C223.29962477 43.46221173 257.04171388 42.86725985 290.93041992 40.36883545 C294.8992938 40.08522319 298.8705847 39.84703509 302.8425293 39.61108398 C311.87967169 39.06308451 320.89575071 38.48454243 329.89727688 37.5009079 C340.1363281 36.38319162 350.38036209 35.51088295 360.65112305 34.74780273 C362.32810664 34.62115907 364.00507257 34.49428141 365.68202209 34.3671875 C370.05207027 34.03667458 374.42236728 33.70957453 378.79272461 33.38317871 C382.29047538 33.12136425 385.78803568 32.85705782 389.28559017 32.59263611 C408.45409538 31.14356725 427.62463647 29.72808175 446.80026245 28.3762207 C449.12448512 28.21178376 451.44852928 28.04519873 453.77246094 27.87670898 C490.21102822 25.24192417 526.59187004 23.83861344 563.12670898 23.92456055 C568.04117656 23.93601761 572.95542879 23.92912598 577.86988926 23.9176693 C606.85407566 23.86062811 635.95696711 24.1176771 664.74731445 27.8449707 C667.63825194 28.20255427 670.53204212 28.52931149 673.42723083 28.85046387 C676.44129367 29.18485758 679.45464964 29.52541061 682.46798706 29.86627197 C683.96005192 30.03409109 685.45233528 30.19998164 686.94485474 30.3637085 C713.20273005 33.25721009 713.20273005 33.25721009 718.5456543 37.74389648 C719.10768555 38.69393555 719.6697168 39.64397461 720.2487793 40.62280273 C720.84174805 41.57026367 721.4347168 42.51772461 722.0456543 43.49389648 C723.24041477 45.70677274 724.38099678 47.9332291 725.4987793 50.18530273 C717.12394353 49.6966389 708.75844346 49.15002571 700.3972168 48.46655273 C699.61977112 48.40322754 698.84232544 48.33990234 698.0413208 48.2746582 C694.86561845 48.01495893 691.69005837 47.75373433 688.51489258 47.48754883 C661.63255909 45.24224719 634.83530848 44.94092194 607.8737793 44.93530273 C606.90123829 44.93486088 605.92869728 44.93441902 604.92668533 44.93396378 C570.35677484 44.92575108 535.99460074 45.75681095 501.4987793 48.18530273 C500.27564026 48.2701593 499.05250122 48.35501587 497.79229736 48.44244385 C443.77367382 52.2075663 389.90848109 57.75282607 336.05249023 63.32617188 C332.68042765 63.67512353 329.30835834 64.02401014 325.9362793 64.37280273 C325.10786026 64.45849895 324.27944122 64.54419518 323.42591858 64.63248825 C285.17339325 68.58741689 246.91403429 72.24337456 208.4987793 74.18530273 C207.43723633 74.24314941 206.37569336 74.30099609 205.28198242 74.3605957 C52.95662786 82.49845945 52.95662786 82.49845945 14.4987793 55.18530273 C14.92677016 46.91081272 17.54322125 39.85230386 20.4987793 32.18530273 C-9.2732035 30.0515034 -39.12582482 31.99134708 -68.5012207 37.18530273 C-69.49738403 37.36029297 -69.49738403 37.36029297 -70.51367188 37.53881836 C-95.13726845 41.88568094 -119.9517074 47.13402307 -143.1965332 56.55957031 C-145.89065045 57.29103456 -146.99729255 57.44062929 -149.5012207 56.18530273 C-151.22460938 53.74853516 -151.22460938 53.74853516 -152.91918945 50.54077148 C-153.53342773 49.38899414 -154.14766602 48.2372168 -154.78051758 47.05053711 C-155.25026001 46.14501099 -155.25026001 46.14501099 -155.72949219 45.22119141 C-156.6832934 43.38326089 -157.65566801 41.55622599 -158.63208008 39.73022461 C-163.7681605 30.00584003 -163.7681605 30.00584003 -164.5012207 26.18530273 C-151.36131898 21.45292433 -138.09815779 18.00704696 -124.49243164 14.88793945 C-121.84046853 14.26499219 -119.20574724 13.60142963 -116.5715332 12.90795898 C-92.58771321 6.67730447 -67.22125665 2.85822945 -42.5012207 1.18530273 C-41.41784424 1.10062744 -40.33446777 1.01595215 -39.21826172 0.92871094 C-26.15364745 0.01336616 -13.09222316 -0.00081678 0 0 Z " fill="#FDDF00" transform="translate(276.501220703125,470.814697265625)"/>
<path d="M0 0 C10.85629241 11.97262068 12.70199434 26.30446451 12.76953125 41.86328125 C12.80046875 43.61608398 12.80046875 43.61608398 12.83203125 45.40429688 C12.87977013 56.10377329 10.74400602 65.21907683 5.89453125 74.73828125 C5.54898193 75.41874512 5.20343262 76.09920898 4.84741211 76.80029297 C-1.09033232 88.02120636 -9.65750206 96.04028048 -21.48046875 100.67578125 C-19.11066705 106.05308686 -16.73484303 111.42770471 -14.35546875 116.80078125 C-13.9992041 117.60579071 -13.64293945 118.41080017 -13.27587891 119.24020386 C-9.36122672 128.0768199 -5.41360894 136.89418908 -1.30078125 145.640625 C-0.97488007 146.33393921 -0.64897888 147.02725342 -0.3132019 147.74157715 C1.23195195 151.02215235 2.78661945 154.29790283 4.35205078 157.56884766 C4.90231934 158.7294873 5.45258789 159.89012695 6.01953125 161.0859375 C6.50421875 162.09793213 6.98890625 163.10992676 7.48828125 164.15258789 C8.51953125 166.67578125 8.51953125 166.67578125 8.51953125 169.67578125 C-13.92046875 169.67578125 -36.36046875 169.67578125 -59.48046875 169.67578125 C-60.14046875 166.37578125 -60.80046875 163.07578125 -61.48046875 159.67578125 C-62.61794495 156.42623069 -63.78915649 153.28501844 -65.10546875 150.11328125 C-65.45520752 149.2526709 -65.80494629 148.39206055 -66.1652832 147.50537109 C-68.78750271 141.13586806 -71.64494327 134.89784094 -74.69433594 128.72216797 C-76.31706112 125.38497061 -77.71193493 122.14767228 -78.7421875 118.578125 C-80.21905127 113.4626717 -80.21905127 113.4626717 -82.48046875 108.67578125 C-85.87912478 106.91604436 -88.71529662 106.72280883 -92.48046875 106.67578125 C-92.51785156 107.39854248 -92.55523437 108.12130371 -92.59375 108.8659668 C-93.27617756 120.02984614 -94.66427081 131.09201937 -96.06445312 142.18481445 C-96.48515413 145.52548657 -96.89717207 148.86715814 -97.30859375 152.20898438 C-97.57370337 154.32949158 -97.83930959 156.44993677 -98.10546875 158.5703125 C-98.22841309 159.57117386 -98.35135742 160.57203522 -98.47802734 161.60322571 C-98.59484863 162.51895859 -98.71166992 163.43469147 -98.83203125 164.37817383 C-98.93338379 165.18644119 -99.03473633 165.99470856 -99.13916016 166.82746887 C-99.48046875 168.67578125 -99.48046875 168.67578125 -100.48046875 169.67578125 C-102.26038799 169.76948749 -104.04403614 169.79322396 -105.82641602 169.78930664 C-106.96752335 169.78923111 -108.10863068 169.78915558 -109.28431702 169.78907776 C-110.52596115 169.78391647 -111.76760529 169.77875519 -113.046875 169.7734375 C-114.94251442 169.77131508 -114.94251442 169.77131508 -116.87644958 169.76914978 C-120.24171764 169.76448707 -123.60691865 169.75549605 -126.97216797 169.7444458 C-130.40396545 169.73422971 -133.83576984 169.72965174 -137.26757812 169.72460938 C-144.00522699 169.71355505 -150.742844 169.69679835 -157.48046875 169.67578125 C-155.77274987 151.72242158 -153.37948613 133.84993045 -151.0701015 115.96658063 C-150.60687714 112.37731201 -150.14507436 108.78786106 -149.68327004 105.1984095 C-148.59491581 96.73903576 -147.50438402 88.27994482 -146.41235352 79.82104492 C-145.28709964 71.10455445 -144.16519839 62.38763712 -143.0449633 53.67050034 C-142.07935799 46.15736501 -141.11190267 38.64446958 -140.14290863 31.13177055 C-139.56566158 26.65627454 -138.98906991 22.18069673 -138.41418266 17.70489693 C-137.87540721 13.51101006 -137.33431504 9.31742854 -136.79141998 5.12407303 C-136.59266188 3.58585212 -136.39471704 2.04752588 -136.19764137 0.50908852 C-135.92879858 -1.58854718 -135.65702789 -3.68578329 -135.38450623 -5.78294373 C-135.23316443 -6.95659705 -135.08182264 -8.13025038 -134.92589474 -9.33946896 C-134.56884384 -11.73202711 -134.12893699 -13.99765989 -133.48046875 -16.32421875 C-128.25594117 -16.46979622 -123.03133564 -16.61202582 -117.80664062 -16.75146484 C-116.03806236 -16.79910009 -114.26950635 -16.84757053 -112.50097656 -16.89697266 C-20.66334325 -19.45672467 -20.66334325 -19.45672467 0 0 Z M-80.48046875 24.67578125 C-81.1266048 29.02990305 -81.77232368 33.38408662 -82.41796875 37.73828125 C-82.60037109 38.96740234 -82.78277344 40.19652344 -82.97070312 41.46289062 C-83.32363697 43.84358984 -83.67445055 46.22460453 -84.02294922 48.60595703 C-84.36208749 50.88147714 -84.72846454 53.15297356 -85.109375 55.421875 C-85.61403582 59.84695359 -85.56102249 64.22742482 -85.48046875 68.67578125 C-69.06360405 70.22243795 -69.06360405 70.22243795 -54.29296875 64.66015625 C-47.49058563 57.21271956 -45.13794412 50.25863366 -45.26953125 40.36328125 C-45.67904108 35.14582262 -47.62380059 32.51341234 -51.29296875 28.92578125 C-57.6383936 24.44665783 -63.35938063 24.41176678 -70.85546875 24.55078125 C-71.78230469 24.55980469 -72.70914063 24.56882812 -73.6640625 24.578125 C-75.93646952 24.60155188 -78.20833055 24.63435377 -80.48046875 24.67578125 Z " fill="#FFFFFF" transform="translate(557.48046875,286.32421875)"/>
<path d="M0 0 C-0.58868274 4.32863754 -2.15344906 7.34577195 -4.38671875 11.078125 C-4.72621048 11.64899841 -5.06570221 12.21987183 -5.41548157 12.80804443 C-6.13418503 14.01354787 -6.85636184 15.21698653 -7.58178711 16.41845703 C-8.67328734 18.22645763 -9.75456843 20.04023324 -10.83398438 21.85546875 C-14.71532121 28.35703409 -18.71228586 34.75772844 -23 41 C-29.06230876 39.11173989 -34.70223312 36.84541384 -40.421875 34.0859375 C-49.2656712 30.36082335 -61.94607174 30.5343531 -71 33.625 C-84.48967241 39.45008581 -93.64526571 48.8469731 -99.4140625 62.296875 C-105.81844523 79.15051376 -107.69885406 98.02804316 -100.74609375 115.07421875 C-96.77818118 122.30728008 -91.95506061 125.59226656 -84.3125 128.3125 C-76.07547112 130.03464016 -67.2518166 129.2944026 -59 128 C-58.92652344 126.74896484 -58.92652344 126.74896484 -58.8515625 125.47265625 C-58.73941406 123.78462891 -58.73941406 123.78462891 -58.625 122.0625 C-58.55539062 120.96035156 -58.48578125 119.85820312 -58.4140625 118.72265625 C-57.93688487 114.43255921 -56.93639185 110.21376333 -56 106 C-63.59 106 -71.18 106 -79 106 C-79 100.27968304 -78.91880421 95.0094786 -78.37890625 89.375 C-78.28258156 88.36554321 -78.28258156 88.36554321 -78.18431091 87.33569336 C-78.04939291 85.93403899 -77.91234321 84.53258823 -77.77319336 83.13134766 C-77.56027321 80.97747404 -77.35690978 78.82283383 -77.15429688 76.66796875 C-77.02139829 75.29942419 -76.8879552 73.93093236 -76.75390625 72.5625 C-76.63345947 71.32628906 -76.5130127 70.09007812 -76.38891602 68.81640625 C-76 66 -76 66 -75 65 C-72.73008113 64.90560022 -70.45718033 64.88257774 -68.18530273 64.88647461 C-67.11706772 64.88625557 -67.11706772 64.88625557 -66.0272522 64.8860321 C-63.66266888 64.8867313 -61.29816339 64.89452394 -58.93359375 64.90234375 C-57.29834537 64.90420791 -55.66309643 64.90563182 -54.02784729 64.90663147 C-49.71565215 64.91045682 -45.40349048 64.92028725 -41.09130859 64.93133545 C-36.69434054 64.9415492 -32.29736711 64.94612901 -27.90039062 64.95117188 C-19.26691169 64.96190951 -10.63346 64.97898613 -2 65 C-2.64252173 75.57386074 -3.73608086 86.04814772 -4.99609375 96.5625 C-5.19176076 98.20962291 -5.38732039 99.85675859 -5.58277893 101.50390625 C-5.98977966 104.92622767 -6.39943955 108.34821847 -6.81079102 111.77001953 C-7.33626629 116.14464722 -7.85282311 120.52027875 -8.36718655 124.89622498 C-8.76692532 128.28542078 -9.17242352 131.6739093 -9.57954597 135.06222534 C-9.77252913 136.67585261 -9.96349099 138.28972301 -10.15234184 139.90383911 C-10.41642895 142.15541159 -10.68854679 144.40587748 -10.96264648 146.65625 C-11.19128639 148.57147461 -11.19128639 148.57147461 -11.42454529 150.52539062 C-12.82236586 158.96546483 -12.82236586 158.96546483 -15.9609375 161.72265625 C-44.40600136 177.51012697 -79.39628849 182.2667664 -110.96191406 173.59863281 C-116.15751649 172.07256463 -121.08753997 170.27759511 -126 168 C-127.07507813 167.50886719 -128.15015625 167.01773438 -129.2578125 166.51171875 C-146.18453964 158.12838698 -158.28514015 144.20649664 -164.8984375 126.609375 C-174.735544 97.1954526 -170.46707943 60.78955456 -156.82275391 33.25024414 C-152.74396525 25.39002367 -148.0286832 18.52578514 -142 12 C-141.32710937 11.23558594 -140.65421875 10.47117187 -139.9609375 9.68359375 C-122.2884369 -9.34578424 -96.89776238 -17.64067623 -71.55175781 -18.9140625 C-45.66531299 -19.78586011 -22.32207956 -12.63634964 0 0 Z " fill="#FFFFFF" transform="translate(740,282)"/>
<path d="M0 0 C15.97964162 13.60684333 24.14939731 32.38892332 27 53 C27.40827319 58.23332003 27.48743649 63.44131973 27.4375 68.6875 C27.43412628 69.38177094 27.43075256 70.07604187 27.42727661 70.79135132 C27.22908455 99.09633885 18.98470441 126.49176638 0 148 C-0.77537109 148.91652344 -0.77537109 148.91652344 -1.56640625 149.8515625 C-15.01052968 164.60977318 -37.78730138 173.41253242 -57.4296875 174.90625 C-58.70199219 174.95265625 -58.70199219 174.95265625 -60 175 C-61.30195312 175.0515625 -62.60390625 175.103125 -63.9453125 175.15625 C-87.40674459 175.77852823 -110.41802233 170.26435598 -128.1015625 153.98828125 C-147.34252379 133.83673949 -150.74197996 108.86665713 -150.13183594 82.21240234 C-148.97217463 53.95532191 -136.17687422 24.93650909 -115.734375 5.42578125 C-83.82600515 -22.88150115 -33.72053876 -27.14825541 0 0 Z M-79.65234375 44.99609375 C-90.66821923 60.27256229 -94.08809574 81.39846093 -91.4609375 99.76953125 C-89.53912973 109.6847922 -87.18903062 117.03713745 -79.20703125 123.5234375 C-73.50368883 127.33912499 -66.83461073 129.07524617 -60 128 C-50.22411927 125.69039371 -42.92795706 120.56549753 -37.1875 112.3125 C-28.07684726 96.2903176 -26.14170764 72.66933014 -29.6875 54.8046875 C-30.5703578 51.69261376 -31.59705877 48.91110306 -33 46 C-33.4125 45.1440625 -33.825 44.288125 -34.25 43.40625 C-37.74912234 37.28278591 -42.26138882 34.02255574 -49 32 C-61.57109954 29.99149337 -71.77321138 35.47780382 -79.65234375 44.99609375 Z " fill="#FFFFFF" transform="translate(975,284)"/>
<path d="M0 0 C-0.58440942 3.75180017 -1.63915984 6.52649246 -3.51953125 9.81640625 C-4.04200439 10.73671631 -4.56447754 11.65702637 -5.1027832 12.60522461 C-5.94909302 14.06907593 -5.94909302 14.06907593 -6.8125 15.5625 C-7.38766357 16.56869385 -7.96282715 17.5748877 -8.55541992 18.61157227 C-14.22804692 28.49239791 -20.07667701 38.26778811 -26 48 C-32.16405701 46.76300464 -38.01030675 45.08145153 -43.9375 43 C-56.25370939 38.80794594 -68.66637704 34.9413782 -81 41 C-83.19887923 42.59669834 -83.19887923 42.59669834 -84 45 C-84.16025399 48.54578685 -84.16025399 48.54578685 -83 52 C-79.37643257 55.48368707 -75.69271324 57.11627969 -71 58.8125 C-70.31647461 59.06330322 -69.63294922 59.31410645 -68.92871094 59.57250977 C-64.88125192 61.03829516 -60.80612815 62.3935983 -56.703125 63.6953125 C-40.39156417 68.88375838 -23.99006478 75.15603761 -15.28515625 91.0625 C-7.20320932 109.53552155 -8.0610249 130.6875975 -15.25 149.3125 C-17.81610714 155.06492144 -21.18033428 160.01423441 -25 165 C-25.680625 165.94875 -26.36125 166.8975 -27.0625 167.875 C-33.13521401 174.53539601 -39.00286374 174.80530017 -47.6875 175.5 C-50.23345556 175.7421031 -52.77902511 175.98829539 -55.32421875 176.23828125 C-56.61247559 176.36283691 -57.90073242 176.48739258 -59.22802734 176.61572266 C-77.65484896 178.49299238 -95.62159325 182.02013756 -113.60546875 186.3581543 C-124.13406859 188.85909499 -133.68613207 190.67366611 -144.1875 187 C-144.80262451 186.78504883 -145.41774902 186.57009766 -146.05151367 186.34863281 C-153.67306765 183.56809356 -160.83746849 179.77997964 -168 176 C-168.66 175.67 -169.32 175.34 -170 175 C-168.63116909 170.2451137 -166.5523812 166.3656259 -163.875 162.25 C-162.98705483 160.85755214 -162.10043906 159.46425604 -161.21484375 158.0703125 C-160.71581543 157.28688477 -160.21678711 156.50345703 -159.70263672 155.69628906 C-156.60476243 150.79050706 -153.56973056 145.84578439 -150.53106689 140.90319824 C-149.44559488 139.1381627 -148.35841044 137.37419096 -147.27099609 135.61035156 C-146.60277832 134.52463867 -145.93456055 133.43892578 -145.24609375 132.3203125 C-144.64466553 131.34336426 -144.0432373 130.36641602 -143.42358398 129.35986328 C-142.01291732 127.09173 -142.01291732 127.09173 -141 125 C-135.98620391 125.67454686 -131.70346647 127.78185049 -127.125 129.8125 C-111.4193386 136.61056326 -92.99824101 142.8006408 -76.0703125 136.9765625 C-72.99244084 135.52473625 -71.54467889 134.01914511 -70 131 C-69.40590193 127.43541159 -69.66711597 125.64991644 -71.3125 122.4375 C-79.97102237 114.58442157 -92.78970441 112.78559718 -103.81835938 110.12695312 C-119.43785406 106.18826241 -132.33689165 99.55199951 -141.7578125 86.0859375 C-151.25155817 70.14360987 -150.38176658 51.40388413 -146 34 C-140.70526583 17.45638005 -129.49331829 4.51596183 -114.5546875 -4.18359375 C-78.260107 -22.72972554 -35.14878359 -19.06454884 0 0 Z " fill="#FEFEFE" transform="translate(265,264)"/>
<path d="M0 0 C2.07868943 0.04519242 4.15747315 0.08624864 6.23632812 0.12304688 C11.30572955 0.22174465 16.37057132 0.37676447 21.4375 0.5625 C20.50434879 1.66187491 19.56962916 2.75991864 18.63427734 3.85742188 C18.11392914 4.46904175 17.59358093 5.08066162 17.0574646 5.71081543 C14.51430031 8.61775431 11.80409385 11.3438999 9.0625 14.0625 C8.49813232 14.62493408 7.93376465 15.18736816 7.35229492 15.7668457 C3.66214074 19.41901689 -0.10859066 22.93874371 -4.07421875 26.29296875 C-5.69060735 27.63789285 -5.69060735 27.63789285 -7.5625 29.5625 C6.2975 29.8925 20.1575 30.2225 34.4375 30.5625 C33.43357457 45.62138148 31.43215564 60.60258267 29.4375 75.5625 C5.0175 75.5625 -19.4025 75.5625 -44.5625 75.5625 C-44.5625 79.1925 -44.5625 82.8225 -44.5625 86.5625 C-44.6714241 88.56484935 -44.80693507 90.56650569 -45 92.5625 C-45.12181641 93.8928125 -45.12181641 93.8928125 -45.24609375 95.25 C-45.5625 97.5625 -45.5625 97.5625 -46.5625 100.5625 C-26.7625 100.5625 -6.9625 100.5625 13.4375 100.5625 C12.77621313 109.82051622 12.02246423 118.98141742 10.9375 128.1875 C10.74220703 129.90259766 10.74220703 129.90259766 10.54296875 131.65234375 C9.48179923 140.77411405 9.48179923 140.77411405 8.4375 144.5625 C-11.90782904 145.58234318 -32.19847732 145.66868552 -52.5625 145.5625 C-53.5525 155.1325 -54.5425 164.7025 -55.5625 174.5625 C-31.4725 174.5625 -7.3825 174.5625 17.4375 174.5625 C12.2375 216.1625 12.2375 216.1625 10.4375 221.5625 C1.8575 221.5625 -6.7225 221.5625 -15.5625 221.5625 C-14.9025 217.6025 -14.2425 213.6425 -13.5625 209.5625 C-14.614375 208.94375 -15.66625 208.325 -16.75 207.6875 C-17.34167969 207.33945312 -17.93335938 206.99140625 -18.54296875 206.6328125 C-22.77821981 204.38821136 -26.76280276 203.22590113 -31.5 202.52734375 C-32.64339844 202.35783203 -33.78679687 202.18832031 -34.96484375 202.01367188 C-36.15207031 201.84416016 -37.33929688 201.67464844 -38.5625 201.5 C-39.71878906 201.32662109 -40.87507813 201.15324219 -42.06640625 200.97460938 C-54.0937837 199.2208968 -66.05914656 198.43577318 -78.20703125 198.24609375 C-79.34283127 198.22531265 -80.47863129 198.20453156 -81.64884949 198.18312073 C-85.22418041 198.11851309 -88.79957522 198.05915979 -92.375 198 C-94.82096975 197.95673001 -97.2669334 197.91311326 -99.71289062 197.86914062 C-105.66268423 197.76228225 -111.61257835 197.66191971 -117.5625 197.5625 C-115.41831155 178.78225005 -112.87404921 160.06694895 -110.21973634 141.35372043 C-109.66532843 137.44100063 -109.11393324 133.52785616 -108.56217957 129.61476135 C-107.52311575 122.24877983 -106.48145436 114.88316825 -105.43879098 107.51769549 C-104.24924738 99.11369862 -103.06270403 90.70927896 -101.87637675 82.30482757 C-99.44168821 65.05692166 -97.00295325 47.80959125 -94.5625 30.5625 C-81.6925 30.2325 -68.8225 29.9025 -55.5625 29.5625 C-56.2225 30.8825 -56.8825 32.2025 -57.5625 33.5625 C-53.44038823 30.41929418 -49.86362619 26.94454416 -46.25 23.25 C-42.15417494 19.1035808 -38.07400941 15.03120658 -33.52392578 11.37548828 C-31.47740811 9.62047756 -31.47740811 9.62047756 -30.02075195 7.29614258 C-22.60451905 -2.69611644 -11.18383678 -0.42221529 0 0 Z M-61.5625 35.5625 C-63.0475 37.5425 -63.0475 37.5425 -64.5625 39.5625 C-49.0525 39.5625 -33.5425 39.5625 -17.5625 39.5625 C-17.2325 38.9025 -16.9025 38.2425 -16.5625 37.5625 C-30.7525 37.5625 -44.9425 37.5625 -59.5625 37.5625 C-59.5625 36.9025 -59.5625 36.2425 -59.5625 35.5625 C-60.2225 35.5625 -60.8825 35.5625 -61.5625 35.5625 Z " fill="#FEFEFE" transform="translate(368.5625,237.4375)"/>
<path d="M0 0 C19.8 0 39.6 0 60 0 C58.84359057 19.65896032 58.84359057 19.65896032 57.68092346 29.31811523 C57.5961783 30.02728088 57.51143314 30.73644653 57.42411995 31.46710205 C57.3363674 32.20063904 57.24861485 32.93417603 57.15820312 33.68994141 C56.97206988 35.2770811 56.78636858 36.8642715 56.60105896 38.45150757 C56.10341337 42.70342982 55.59977052 46.95462116 55.09488487 51.20568895 C54.56471888 55.67825336 54.04008029 60.15146638 53.51477051 64.62460327 C52.6336858 72.12072496 51.7490408 79.61641902 50.86181641 87.11181641 C49.61184096 97.6718569 48.36856446 108.23267839 47.12650776 118.79365277 C46.1585907 127.02144666 45.1887555 135.24901461 44.21875 143.4765625 C44.11525049 144.35469368 44.01175098 145.23282487 43.90511513 146.13756609 C43.31001287 151.18591045 42.71395972 156.23414083 42.11644173 161.28219986 C41.93596236 162.80794378 41.75576653 164.33372128 41.57588005 165.85953522 C41.32967757 167.94727608 41.08239871 170.03488676 40.83483887 172.12246704 C40.69694695 173.28857828 40.55905502 174.45468952 40.41698456 175.65613747 C39.98633952 179.10954546 39.4921683 182.55482188 39 186 C18.87 186 -1.26 186 -22 186 C-22 180.17047215 -21.90179377 175.06757295 -21.20948792 169.37687683 C-21.08191436 168.30989365 -21.08191436 168.30989365 -20.95176357 167.22135526 C-20.66897611 164.86721999 -20.37858349 162.51408998 -20.08813477 160.16088867 C-19.88240887 158.46169437 -19.67715 156.76244347 -19.47232056 155.06314087 C-18.91726932 150.46996899 -18.35553277 145.87763753 -17.79242063 141.28544784 C-17.20341608 136.47379815 -16.62014243 131.66145354 -16.03611755 126.84919739 C-15.05532617 118.77474816 -14.07039719 110.70081229 -13.08276367 102.62719727 C-11.94082879 93.29197048 -10.80442436 83.95608385 -9.67119175 74.61979693 C-8.4638698 64.67349438 -7.25268669 54.72766488 -6.04028201 44.78198075 C-5.69128328 41.91695929 -5.34298975 39.05185281 -4.99484444 36.18672752 C-4.44814649 31.68926901 -3.89885283 27.19213484 -3.34753799 22.69524002 C-3.14551125 21.0441484 -2.94434262 19.39295153 -2.74408913 17.74164391 C-2.47090282 15.49020318 -2.1946064 13.23916554 -1.91749573 10.98820496 C-1.7635563 9.72782001 -1.60961687 8.46743505 -1.45101261 7.16885662 C-1 4 -1 4 0 0 Z " fill="#FFFFFF" transform="translate(764,270)"/>
<path d="M0 0 C21 0 21 0 26.734375 5.6171875 C28.02612305 7.4987793 28.02612305 7.4987793 28.83984375 9.14453125 C29.15421387 9.75635254 29.46858398 10.36817383 29.79248047 10.99853516 C30.10846191 11.61776855 30.42444336 12.23700195 30.75 12.875 C31.45766911 14.11479993 32.17249073 15.35054559 32.89453125 16.58203125 C35.05978372 20.32222668 37.06728416 24.13456832 39 28 C39.33 18.76 39.66 9.52 40 0 C46.6 0 53.2 0 60 0 C60 20.46 60 40.92 60 62 C39 62 39 62 34.28125 57.90625 C32.77734375 55.28125 32.77734375 55.28125 31.5 52.5 C31.01660156 51.613125 30.53320312 50.72625 30.03515625 49.8125 C29.12899572 48.14261067 28.25460914 46.45467721 27.42773438 44.74414062 C25.50151416 41.04189794 23.21187584 37.53900134 21 34 C20.67 43.24 20.34 52.48 20 62 C13.4 62 6.8 62 0 62 C0 41.54 0 21.08 0 0 Z " fill="#007C2B" transform="translate(666,143)"/>
<path d="M0 0 C6.93 0 13.86 0 21 0 C27.49508044 7.54267406 27.49508044 7.54267406 28.98046875 10.86328125 C30.87488649 14.84406214 33.11597352 18.31046172 35.625 21.9375 C36.73875 23.608125 37.8525 25.27875 39 27 C39.33 18.09 39.66 9.18 40 0 C46.6 0 53.2 0 60 0 C60 20.46 60 40.92 60 62 C53.07 62 46.14 62 39 62 C32.51006076 53.90502203 32.51006076 53.90502203 31.01953125 50.359375 C29.1663937 46.23403501 26.95073872 42.71902862 24.375 39 C23.26125 37.35 22.1475 35.7 21 34 C20.67 43.24 20.34 52.48 20 62 C13.4 62 6.8 62 0 62 C0 41.54 0 21.08 0 0 Z " fill="#007C2B" transform="translate(550,143)"/>
<path d="M0 0 C6.435 -0.0825 12.87 -0.165 19.5 -0.25 C22.52317383 -0.30462402 22.52317383 -0.30462402 25.60742188 -0.36035156 C27.22785379 -0.37204801 28.84829758 -0.38223757 30.46875 -0.390625 C31.29149414 -0.41108887 32.11423828 -0.43155273 32.96191406 -0.45263672 C39.48407621 -0.45652359 44.74281169 1.07842169 49.67224121 5.49993896 C52.45389263 8.64256317 52.77133767 12.9368463 53 17 C52.17100576 21.79055961 50.83274254 25.84071093 47 29 C46.34 29 45.68 29 45 29 C45 29.66 45 30.32 45 31 C45.7425 31.165 46.485 31.33 47.25 31.5 C51.30080559 33.70953032 52.57991341 36.70177001 54 41 C55.0049468 46.25820647 53.90580282 50.59033403 51.33984375 55.23828125 C48.29953282 59.23589125 43.83909813 61.02560768 39 62 C37.65726185 62.08231525 36.31107213 62.11789309 34.96582031 62.11352539 C34.17449707 62.11340454 33.38317383 62.11328369 32.56787109 62.11315918 C31.33544678 62.10548523 31.33544678 62.10548523 30.078125 62.09765625 C29.3154834 62.09664917 28.5528418 62.09564209 27.76708984 62.09460449 C24.92804452 62.0893867 22.08902069 62.07542544 19.25 62.0625 C12.8975 62.041875 6.545 62.02125 0 62 C0 41.54 0 21.08 0 0 Z M20 16 C20 18.31 20 20.62 20 23 C23.63 23 27.26 23 31 23 C31.33 21.35 31.66 19.7 32 18 C30.18806994 15.75675164 30.18806994 15.75675164 27.6171875 15.8046875 C26.71226562 15.82789063 25.80734375 15.85109375 24.875 15.875 C23.96492188 15.89304688 23.05484375 15.91109375 22.1171875 15.9296875 C21.41851562 15.95289063 20.71984375 15.97609375 20 16 Z M20 38 C20 40.64 20 43.28 20 46 C21.41623216 46.05447047 22.83308191 46.09300508 24.25 46.125 C25.43335938 46.15980469 25.43335938 46.15980469 26.640625 46.1953125 C29.20731941 45.9828378 30.7916067 45.28654105 33 44 C32.62095792 40.70924004 32.62095792 40.70924004 31 38 C29.14712498 37.92773498 27.29166122 37.9161878 25.4375 37.9375 C24.42558594 37.94652344 23.41367187 37.95554688 22.37109375 37.96484375 C21.58863281 37.97644531 20.80617188 37.98804688 20 38 Z " fill="#007C2B" transform="translate(389,143)"/>
<path d="M0 0 C6.6 0 13.2 0 20 0 C20.04898437 2.45695313 20.09796875 4.91390625 20.1484375 7.4453125 C20.20252629 9.83827537 20.25980264 12.23114233 20.31738281 14.62402344 C20.3555451 16.28052556 20.39041975 17.93710695 20.421875 19.59375 C20.467804 21.98205801 20.52575037 24.36982632 20.5859375 26.7578125 C20.59748871 27.49242706 20.60903992 28.22704163 20.62094116 28.98391724 C20.7501008 36.01850322 20.7501008 36.01850322 24 42 C26.67058851 42.14115161 29.32432238 42.04247107 32 42 C34.61584026 36.69218909 35.46019676 32.54174246 35.51171875 26.66015625 C35.52966995 25.89319931 35.54762115 25.12624237 35.56611633 24.33604431 C35.6198448 21.91158374 35.65399275 19.48731568 35.6875 17.0625 C35.72070634 15.40817654 35.75519902 13.75387838 35.79101562 12.09960938 C35.87794729 8.06638434 35.93833097 4.03400496 36 0 C42.6 0 49.2 0 56 0 C56.06926118 5.37158939 56.12887515 10.7415994 56.16479492 16.11328125 C56.17978489 17.93657715 56.20018384 19.7598376 56.22631836 21.58300781 C56.56579855 45.89245224 56.56579855 45.89245224 48.84375 55.2421875 C41.86622363 61.89449018 33.35030597 63.21090916 24 63 C16.41327913 62.25265138 11.10796193 59.39110617 5.8125 53.875 C-1.93856796 43.95465893 -0.35354482 31.26965689 -0.1875 19.375 C-0.17242856 17.49350027 -0.1587445 15.6119889 -0.14648438 13.73046875 C-0.11623757 9.15311917 -0.05748375 4.57740953 0 0 Z " fill="#007C2B" transform="translate(326,143)"/>
<path d="M0 0 C4.26585891 3.1944796 7.23230451 7.08250291 8.6953125 12.26953125 C8.6953125 13.91953125 8.6953125 15.56953125 8.6953125 17.26953125 C1.4353125 17.26953125 -5.8246875 17.26953125 -13.3046875 17.26953125 C-13.6346875 16.27953125 -13.9646875 15.28953125 -14.3046875 14.26953125 C-15.6246875 14.26953125 -16.9446875 14.26953125 -18.3046875 14.26953125 C-17.87727978 16.23195677 -17.87727978 16.23195677 -16.3046875 18.26953125 C-13.66879292 19.70595441 -10.87311965 20.68623776 -8.0546875 21.70703125 C-1.1105441 24.23812983 4.26774988 26.70910607 8.5703125 33.01953125 C10.56614101 38.78525805 10.59970119 43.91042663 8.0703125 49.51953125 C4.96615472 55.02584646 0.68874983 58.23991571 -5.3046875 60.26953125 C-15.7605493 61.94897019 -24.70796856 61.70969478 -33.58203125 55.60546875 C-39.87782417 50.7230171 -39.58863778 47.84977984 -41.3046875 39.26953125 C-34.0446875 39.26953125 -26.7846875 39.26953125 -19.3046875 39.26953125 C-18.6446875 40.58953125 -17.9846875 41.90953125 -17.3046875 43.26953125 C-14.74948829 44.08124353 -14.74948829 44.08124353 -12.3046875 44.26953125 C-12.49302683 42.31882955 -12.49302683 42.31882955 -13.3046875 40.26953125 C-15.1017927 39.04999399 -15.1017927 39.04999399 -17.3828125 38.26953125 C-18.21425781 37.93953125 -19.04570312 37.60953125 -19.90234375 37.26953125 C-21.21525391 36.77453125 -21.21525391 36.77453125 -22.5546875 36.26953125 C-34.87099015 31.54243458 -34.87099015 31.54243458 -39.1171875 25.83203125 C-41.32553589 19.20698609 -41.63221891 12.07209756 -38.6171875 5.70703125 C-29.35532573 -4.05547169 -12.14094345 -6.73703333 0 0 Z " fill="#007C2B" transform="translate(311.3046875,144.73046875)"/>
<path d="M0 0 C13.86 0 27.72 0 42 0 C42 5.28 42 10.56 42 16 C34.74 16 27.48 16 20 16 C20 17.98 20 19.96 20 22 C26.27 22 32.54 22 39 22 C39 27.28 39 32.56 39 38 C32.73 38 26.46 38 20 38 C20 40.64 20 43.28 20 46 C27.26 46 34.52 46 42 46 C42 51.28 42 56.56 42 62 C28.14 62 14.28 62 0 62 C0 41.54 0 21.08 0 0 Z " fill="#007C2B" transform="translate(787,143)"/>
<path d="M0 0 C13.86 0 27.72 0 42 0 C42 5.28 42 10.56 42 16 C34.74 16 27.48 16 20 16 C20 17.98 20 19.96 20 22 C26.27 22 32.54 22 39 22 C39 27.28 39 32.56 39 38 C32.73 38 26.46 38 20 38 C20 40.64 20 43.28 20 46 C27.26 46 34.52 46 42 46 C42 51.28 42 56.56 42 62 C28.14 62 14.28 62 0 62 C0 41.54 0 21.08 0 0 Z " fill="#007C2B" transform="translate(618,143)"/>
<path d="M0 0 C13.86 0 27.72 0 42 0 C42 5.28 42 10.56 42 16 C34.74 16 27.48 16 20 16 C20 17.98 20 19.96 20 22 C26.27 22 32.54 22 39 22 C39 27.28 39 32.56 39 38 C32.73 38 26.46 38 20 38 C20 40.64 20 43.28 20 46 C27.26 46 34.52 46 42 46 C42 51.28 42 56.56 42 62 C28.14 62 14.28 62 0 62 C0 41.54 0 21.08 0 0 Z " fill="#007C2B" transform="translate(502,143)"/>
<path d="M0 0 C17.49 0 34.98 0 53 0 C53 5.28 53 10.56 53 16 C47.72 16 42.44 16 37 16 C37 31.18 37 46.36 37 62 C30.07 62 23.14 62 16 62 C16 46.82 16 31.64 16 16 C10.72 16 5.44 16 0 16 C0 10.72 0 5.44 0 0 Z " fill="#007C2B" transform="translate(730,143)"/>
<path d="M0 0 C17.49 0 34.98 0 53 0 C53 5.28 53 10.56 53 16 C47.39 16 41.78 16 36 16 C36 31.18 36 46.36 36 62 C29.4 62 22.8 62 16 62 C16 46.82 16 31.64 16 16 C10.72 16 5.44 16 0 16 C0 10.72 0 5.44 0 0 Z " fill="#007C2B" transform="translate(445,143)"/>
<path d="M0 0 C49.83 0 99.66 0 151 0 C151 1.98 151 3.96 151 6 C101.17 6 51.34 6 0 6 C0 4.02 0 2.04 0 0 Z " fill="#FFD600" transform="translate(98,174)"/>
<path d="M0 0 C49.17 0 98.34 0 149 0 C149 1.98 149 3.96 149 6 C99.83 6 50.66 6 0 6 C0 4.02 0 2.04 0 0 Z " fill="#FFD600" transform="translate(853,174)"/>
<path d="M0 0 C9.24706288 -0.31968079 18.15859322 -0.07857895 27.3125 1.375 C28.11792236 1.50108643 28.92334473 1.62717285 29.75317383 1.75708008 C33.47192743 2.39050501 36.73795663 2.98855234 40 5 C39.67 5.66 39.34 6.32 39 7 C36.24552398 7.89136083 33.5310604 8.6653077 30.73046875 9.3828125 C29.89792068 9.60194305 29.06537262 9.82107361 28.20759583 10.04684448 C26.44238755 10.50955364 24.67612932 10.96827261 22.90893555 11.42333984 C20.20679337 12.12002564 17.5085488 12.83043786 14.81054688 13.54296875 C13.09656897 13.99040698 11.38238264 14.43704773 9.66796875 14.8828125 C8.86054733 15.09527618 8.05312592 15.30773987 7.22123718 15.52664185 C6.08534904 15.81727005 6.08534904 15.81727005 4.92651367 16.11376953 C4.26334641 16.28538605 3.60017914 16.45700256 2.91691589 16.63381958 C1 17 1 17 -3 17 C-2.54548816 15.26982492 -2.08621143 13.54090123 -1.625 11.8125 C-1.36976563 10.84957031 -1.11453125 9.88664062 -0.8515625 8.89453125 C-0.05233704 6.17789793 0.9031362 3.60862825 2 1 C1.34 0.67 0.68 0.34 0 0 Z " fill="#FAA100" transform="translate(295,502)"/>
<path d="M0 0 C1.32 0.33 2.64 0.66 4 1 C3.11027233 3.98789807 2.18384231 6.96312247 1.25 9.9375 C0.99734375 10.78763672 0.7446875 11.63777344 0.484375 12.51367188 C0.2265625 13.32255859 -0.03125 14.13144531 -0.296875 14.96484375 C-0.52729492 15.7137085 -0.75771484 16.46257324 -0.99511719 17.23413086 C-2 19 -2 19 -4.10644531 19.75219727 C-5.04375488 19.87485962 -5.04375488 19.87485962 -6 20 C-4.63125844 13.04223041 -2.5466871 6.61396893 0 0 Z " fill="#1E1711" transform="translate(353,459)"/>
<path d="M0 0 C0.33 0 0.66 0 1 0 C1.14285714 8.57142857 1.14285714 8.57142857 0 12 C-0.99 12 -1.98 12 -3 12 C-2.68950274 10.56206608 -2.3765224 9.1246682 -2.0625 7.6875 C-1.88847656 6.88699219 -1.71445312 6.08648437 -1.53515625 5.26171875 C-1 3 -1 3 0 0 Z " fill="#D2DDD1" transform="translate(356,447)"/>
</svg>
